<svg width="27" height="20" viewBox="0 0 27 20" fill="none" xmlns="http://www.w3.org/2000/svg">
<path d="M4.725 0C3.60661 0 2.7 0.839453 2.7 1.875V3.75H0.675C0.302189 3.75 0 4.03125 0 4.375C0 4.71875 0.302189 5 0.675 5H11.475C11.8462 5 12.15 5.28125 12.15 5.625C12.15 5.96875 11.8462 6.25 11.475 6.25H2.025C1.65206 6.25 1.35 6.53125 1.35 6.875C1.35 7.21875 1.65206 7.5 2.025 7.5H10.125C10.4963 7.5 10.8 7.78125 10.8 8.125C10.8 8.46875 10.4963 8.75 10.125 8.75H0.675C0.302189 8.75 0 9.03125 0 9.375C0 9.71875 0.302189 10 0.675 10H8.775C9.14625 10 9.45 10.2812 9.45 10.625C9.45 10.9688 9.14625 11.25 8.775 11.25H2.7V16.25C2.7 18.3203 4.47609 20 6.75 20C8.98594 20 10.8 18.3203 10.8 16.25H16.2C16.2 18.3203 17.9761 20 20.25 20C22.4859 20 24.3 18.3203 24.3 16.25H25.65C26.3967 16.25 27 15.6914 27 15C27 14.3086 26.3967 13.75 25.65 13.75V9.26953C25.65 8.60547 25.3673 7.96875 24.8611 7.5L21.6 4.48047C21.0558 4.01172 20.4061 3.75 19.6889 3.75H17.55V1.875C17.55 0.839453 16.643 0 15.525 0H4.725ZM22.95 9.26953V10H17.55V6.25H19.6889L22.95 9.26953ZM6.75 18.125C5.63203 18.125 4.725 17.2852 4.725 16.25C4.725 15.2148 5.63203 14.375 6.75 14.375C7.86797 14.375 8.775 15.2148 8.775 16.25C8.775 17.2852 7.86797 18.125 6.75 18.125ZM22.275 16.25C22.275 17.2852 21.368 18.125 20.25 18.125C19.132 18.125 18.225 17.2852 18.225 16.25C18.225 15.2148 19.132 14.375 20.25 14.375C21.368 14.375 22.275 15.2148 22.275 16.25Z" fill="#950101"/>
</svg>
