<svg width="25" height="25" viewBox="0 0 25 25" fill="none" xmlns="http://www.w3.org/2000/svg">
<path d="M11.8359 14.2822C12.0996 14.0186 12.5537 14.0186 12.8174 14.2822L16.5771 18.042C17.2705 18.7354 18.1933 19.1162 19.1699 19.1162H19.9072L15.166 23.8574C13.6865 25.2979 11.2842 25.2979 9.80466 23.8574L5.04392 19.1016H5.49802C6.47459 19.1016 7.39744 18.7207 8.0908 18.0274L11.8359 14.2822ZM12.8174 10.6885C12.5049 10.957 12.1045 10.9619 11.8359 10.6885L8.0908 6.94337C7.39744 6.20606 6.47459 5.86915 5.49802 5.86915H5.04392L9.79978 1.11133C11.2842 -0.370404 13.6865 -0.370404 15.166 1.11133L19.9121 5.8545H19.1699C18.1933 5.8545 17.2705 6.23536 16.5771 6.92872L12.8174 10.6885ZM5.49802 6.96778C6.17185 6.96778 6.79197 7.24122 7.30955 7.71973L11.0547 11.4648C11.4062 11.7725 11.8652 11.9922 12.3291 11.9922C12.7881 11.9922 13.247 11.7725 13.5986 11.4648L17.3584 7.70508C17.8369 7.23145 18.4961 6.95801 19.1699 6.95801H21.0107L23.8574 9.80469C25.3369 11.2842 25.3369 13.6865 23.8574 15.166L21.0107 18.0127H19.1699C18.4961 18.0127 17.8369 17.7393 17.3584 17.2607L13.5986 13.501C12.9199 12.8223 11.7334 12.8223 11.0547 13.5059L7.30955 17.2461C6.79197 17.7246 6.17185 17.9981 5.49802 17.9981H3.94431L1.1113 15.166C-0.370435 13.6865 -0.370435 11.2842 1.1113 9.80469L3.94431 6.96778H5.49802Z" fill="#950101"/>
</svg>
